<svg xmlns="http://www.w3.org/2000/svg" viewBox="0 0 280.72 291.17"><defs><style>.cls-1{fill:#646edd;}.cls-2{fill:#e3af9a;}.cls-3,.cls-6{fill:none;stroke-linecap:round;stroke-linejoin:round;}.cls-3{stroke:#1c2337;stroke-width:0.66px;}.cls-4{fill:#c3c9ed;}.cls-5{fill:#fff;}.cls-6{stroke:#000;stroke-width:0.47px;}.cls-7{fill:#1d0300;}</style></defs><title>Artboard 2</title><g id="OBJECTS"><path class="cls-1" d="M139.67,138.76s-37.3,0-64.75,27v75.67s131.38,2,131.38,0,0-79,0-79S179.46,138.76,139.67,138.76Z"/><path class="cls-2" d="M139.67,138.76a81.26,81.26,0,0,0-26.29,4.58s3.43,13.16,26,13.18c26.74,0,26.74-14.52,26.74-14.52S149.31,137.26,139.67,138.76Z"/><path class="cls-2" d="M84.18,237.2H46.72A17.8,17.8,0,0,0,28.92,255h0a17.8,17.8,0,0,0,17.8,17.81H90.79Z"/><polygon class="cls-2" points="33.03 243.62 56.28 205.55 90.79 210.21 85.67 255.01 33.03 243.62"/><line class="cls-3" x1="74.92" y1="237.2" x2="46.72" y2="237.2"/><path class="cls-1" d="M80.47,160.76s-22,16.37-43.35,52.4c0,0,6.32,20.85,46.13,24Z"/><path class="cls-2" d="M201.44,237.2H238.9A17.81,17.81,0,0,1,256.71,255h0a17.81,17.81,0,0,1-17.81,17.81H194.83Z"/><polygon class="cls-2" points="252.19 243.16 222.91 198.05 194.83 210.21 199.95 255.01 252.19 243.16"/><line class="cls-3" x1="203.56" y1="237.2" x2="238.9" y2="237.2"/><path class="cls-1" d="M206.34,162.47s20.27,14.66,41.64,50.69c0,0-4.61,20.85-44.42,24Z"/><rect class="cls-4" x="74.92" y="185.48" width="131.38" height="87.34" rx="5.96"/><path class="cls-5" d="M148.66,229.15a8,8,0,1,1-8-8.05A8,8,0,0,1,148.66,229.15Z"/><path class="cls-2" d="M118.76,87a11.36,11.36,0,1,1-11.68-11A11.36,11.36,0,0,1,118.76,87Z"/><path class="cls-6" d="M101,85.71s4.51-2.2,8.82,5.65"/><path class="cls-7" d="M117.91,37.4S105.18,39,103.49,52A50.55,50.55,0,0,0,109.28,83l.44-29.11Z"/><circle class="cls-2" cx="171.57" cy="87.31" r="11.36"/><path class="cls-6" d="M178,85.53s-4.57-2.07-8.65,5.89"/><path class="cls-2" d="M154.06,111.63s-6.41,4.51-12.24,5.63S130.31,115,130.24,115L123.43,111l-1.08,33.85-1,.62a27.06,27.06,0,0,0,34.16.23l-.25-1.17Z"/><path class="cls-7" d="M121.39,110.89s4.74,18.7,19,18.47c12-.2,15.25-18.47,15.25-18.47Z"/><path class="cls-2" d="M170.15,67.54a141.27,141.27,0,0,1-3.5,31.79c-1.75,7.71-6.77,13.11-13.87,17.48l-1.3.79a24.71,24.71,0,0,1-24.93.4h0c-7.75-4.41-13.18-10.25-14.89-18.5a206.67,206.67,0,0,1-3.51-31.65s-4.36-34.72,29.08-34.26S170.15,67.54,170.15,67.54Z"/><path class="cls-7" d="M151.88,67.5s-6.89-1.34-7.21,2.37c0,0-.16,2.51,5.86,3.53s8.41.8,9.13-1.51S155.13,67.8,151.88,67.5Z"/><path class="cls-7" d="M122.2,67.66s-7,.31-6.45,4c0,0,.43,2.48,6.52,2.06s8.37-1.19,8.52-3.61S125.43,67.19,122.2,67.66Z"/><circle class="cls-7" cx="124.72" cy="83.5" r="2.71"/><circle class="cls-7" cx="151.28" cy="83.5" r="2.71"/><polyline class="cls-6" points="138.52 93.68 135.54 93.68 135.54 86.79"/><path class="cls-6" d="M129,99.42s2.67,3.88,15.24,2.08"/><path class="cls-7" d="M109.34,84.33s7.33-39.67,2.47-45C111.81,39.3,95,54.53,109.34,84.33Z"/><path class="cls-7" d="M168.89,82.74s-11.88-34.27-4-39.9C164.85,42.84,181.13,51,168.89,82.74Z"/><path class="cls-7" d="M156.39,37.2s17.54-4.85,19.38,13.53c1.32,13.06-7,32.31-7,32.31l-.44-29.11Z"/><path class="cls-7" d="M152.2,38.33s-.38,23.2,17.12,23.47C169.32,61.8,172.66,41.08,152.2,38.33Z"/><path class="cls-7" d="M159.47,47.56a56.1,56.1,0,0,0-25.56,4.82c-13.19,5.95-34.7,9-37.85-6.49-3.28-16.17,14.43-30.23,47.13-19.55,25.83,8.43,18.16,17.91,18.16,17.91Z"/><path class="cls-7" d="M156.39,38.91s13.28-8.85,18,7.68l-10.08,3.48Z"/><path class="cls-7" d="M162.1,40.35S161.51,25.73,140.81,17a5.6,5.6,0,0,0-5.3.55h0a5.6,5.6,0,0,0-1.42,7.86L138,30.9Z"/><line class="cls-3" x1="1.81" y1="272.82" x2="282.53" y2="272.82"/></g></svg>